<mxfile host="app.diagrams.net" modified="2021-12-30T07:56:53.352Z" agent="5.0 (Macintosh; Intel Mac OS X 10_15_7) AppleWebKit/537.36 (KHTML, like Gecko) Chrome/96.0.4664.110 Safari/537.36" etag="MbB7eiEfGAwkpVesp75Q" version="15.9.4" type="github">
  <diagram id="t4e2lr_UhGJrUJJ8uenl" name="Page-1">
    <mxGraphModel dx="1248" dy="-1684" grid="1" gridSize="10" guides="1" tooltips="1" connect="1" arrows="1" fold="1" page="1" pageScale="1" pageWidth="827" pageHeight="1169" math="0" shadow="0">
      <root>
        <mxCell id="0" />
        <mxCell id="1" parent="0" />
        <mxCell id="1xaKZHLUmzfNcFH49czM-29" value="前端" style="shape=umlLifeline;perimeter=lifelinePerimeter;container=1;collapsible=0;recursiveResize=0;rounded=0;shadow=0;strokeWidth=1;" vertex="1" parent="1">
          <mxGeometry x="195" y="2500" width="115" height="950" as="geometry" />
        </mxCell>
        <mxCell id="1xaKZHLUmzfNcFH49czM-30" value="" style="points=[];perimeter=orthogonalPerimeter;rounded=0;shadow=0;strokeWidth=1;" vertex="1" parent="1xaKZHLUmzfNcFH49czM-29">
          <mxGeometry x="45" y="70" width="10" height="880" as="geometry" />
        </mxCell>
        <mxCell id="1xaKZHLUmzfNcFH49czM-31" value="校验不通过，原因" style="verticalAlign=bottom;endArrow=open;dashed=1;endSize=8;shadow=0;strokeWidth=1;" edge="1" parent="1xaKZHLUmzfNcFH49czM-29">
          <mxGeometry relative="1" as="geometry">
            <mxPoint x="-95" y="422" as="targetPoint" />
            <mxPoint x="45" y="422" as="sourcePoint" />
          </mxGeometry>
        </mxCell>
        <mxCell id="1xaKZHLUmzfNcFH49czM-72" value="返回法律条款页面，或错误码" style="verticalAlign=bottom;endArrow=open;dashed=1;endSize=8;shadow=0;strokeWidth=1;" edge="1" parent="1xaKZHLUmzfNcFH49czM-29">
          <mxGeometry relative="1" as="geometry">
            <mxPoint x="-95" y="571" as="targetPoint" />
            <mxPoint x="55" y="571" as="sourcePoint" />
          </mxGeometry>
        </mxCell>
        <mxCell id="1xaKZHLUmzfNcFH49czM-33" value="Actor" style="shape=umlActor;verticalLabelPosition=bottom;verticalAlign=top;html=1;outlineConnect=0;" vertex="1" parent="1">
          <mxGeometry x="80" y="2550" width="30" height="60" as="geometry" />
        </mxCell>
        <mxCell id="1xaKZHLUmzfNcFH49czM-34" value="1. 点击“办理号牌”" style="verticalAlign=bottom;startArrow=oval;endArrow=block;startSize=8;shadow=0;strokeWidth=1;exitX=0.5;exitY=0.5;exitDx=0;exitDy=0;exitPerimeter=0;" edge="1" parent="1" source="1xaKZHLUmzfNcFH49czM-33" target="1xaKZHLUmzfNcFH49czM-30">
          <mxGeometry relative="1" as="geometry">
            <mxPoint x="180" y="2580" as="sourcePoint" />
          </mxGeometry>
        </mxCell>
        <mxCell id="1xaKZHLUmzfNcFH49czM-37" value="" style="points=[];perimeter=orthogonalPerimeter;rounded=0;shadow=0;strokeWidth=1;" vertex="1" parent="1">
          <mxGeometry x="90" y="2600" width="10" height="849" as="geometry" />
        </mxCell>
        <mxCell id="1xaKZHLUmzfNcFH49czM-38" value="auction_syn" style="shape=umlLifeline;perimeter=lifelinePerimeter;container=1;collapsible=0;recursiveResize=0;rounded=0;shadow=0;strokeWidth=1;" vertex="1" parent="1">
          <mxGeometry x="512.5" y="2500" width="115" height="950" as="geometry" />
        </mxCell>
        <mxCell id="1xaKZHLUmzfNcFH49czM-39" value="" style="points=[];perimeter=orthogonalPerimeter;rounded=0;shadow=0;strokeWidth=1;" vertex="1" parent="1xaKZHLUmzfNcFH49czM-38">
          <mxGeometry x="45" y="70" width="10" height="880" as="geometry" />
        </mxCell>
        <mxCell id="1xaKZHLUmzfNcFH49czM-40" value="拍卖会、用户证件等校验" style="endArrow=classic;html=1;rounded=0;exitX=0.483;exitY=0.653;exitDx=0;exitDy=0;exitPerimeter=0;entryX=0.491;entryY=0.701;entryDx=0;entryDy=0;entryPerimeter=0;" edge="1" parent="1xaKZHLUmzfNcFH49czM-38">
          <mxGeometry width="50" height="50" relative="1" as="geometry">
            <mxPoint x="54.99500000000012" y="130.29000000000042" as="sourcePoint" />
            <mxPoint x="55.914999999999964" y="175.88999999999987" as="targetPoint" />
            <Array as="points">
              <mxPoint x="135.95000000000005" y="130" />
              <mxPoint x="135.95000000000005" y="176" />
            </Array>
          </mxGeometry>
        </mxCell>
        <mxCell id="1xaKZHLUmzfNcFH49czM-41" value="" style="endArrow=classic;html=1;rounded=0;fontSize=14;entryX=0.517;entryY=0.124;entryDx=0;entryDy=0;entryPerimeter=0;" edge="1" parent="1" source="1xaKZHLUmzfNcFH49czM-30" target="1xaKZHLUmzfNcFH49czM-38">
          <mxGeometry width="50" height="50" relative="1" as="geometry">
            <mxPoint x="270" y="2610" as="sourcePoint" />
            <mxPoint x="371.5" y="2610" as="targetPoint" />
          </mxGeometry>
        </mxCell>
        <mxCell id="1xaKZHLUmzfNcFH49czM-42" value="&lt;span style=&quot;color: rgb(6 , 125 , 23) ; font-family: &amp;#34;jetbrains mono&amp;#34; , monospace ; font-size: 9.8pt&quot;&gt;申请号牌资格校验接口&amp;nbsp;&lt;/span&gt;&lt;span style=&quot;color: rgb(6 , 125 , 23) ; font-family: &amp;#34;jetbrains mono&amp;#34; , monospace ; font-size: 9.8pt&quot;&gt;qualification_check&lt;/span&gt;" style="edgeLabel;html=1;align=center;verticalAlign=middle;resizable=0;points=[];fontSize=14;" vertex="1" connectable="0" parent="1xaKZHLUmzfNcFH49czM-41">
          <mxGeometry x="-0.2963" y="1" relative="1" as="geometry">
            <mxPoint x="37" y="-13" as="offset" />
          </mxGeometry>
        </mxCell>
        <mxCell id="1xaKZHLUmzfNcFH49czM-43" value="返回空&quot;&quot; 表示通过" style="verticalAlign=bottom;endArrow=open;dashed=1;endSize=8;shadow=0;strokeWidth=1;" edge="1" parent="1">
          <mxGeometry relative="1" as="geometry">
            <mxPoint x="252" y="2707" as="targetPoint" />
            <mxPoint x="560.5" y="2707" as="sourcePoint" />
          </mxGeometry>
        </mxCell>
        <mxCell id="1xaKZHLUmzfNcFH49czM-44" value="CGWebMgr" style="shape=umlLifeline;perimeter=lifelinePerimeter;container=1;collapsible=0;recursiveResize=0;rounded=0;shadow=0;strokeWidth=1;" vertex="1" parent="1">
          <mxGeometry x="812.5" y="2500" width="543.5" height="930" as="geometry" />
        </mxCell>
        <mxCell id="1xaKZHLUmzfNcFH49czM-45" value="" style="points=[];perimeter=orthogonalPerimeter;rounded=0;shadow=0;strokeWidth=1;" vertex="1" parent="1xaKZHLUmzfNcFH49czM-44">
          <mxGeometry x="44" y="70" width="10" height="870" as="geometry" />
        </mxCell>
        <mxCell id="1xaKZHLUmzfNcFH49czM-47" value="" style="endArrow=classic;html=1;rounded=0;fontSize=14;entryX=0.15;entryY=0.458;entryDx=0;entryDy=0;entryPerimeter=0;" edge="1" parent="1">
          <mxGeometry width="50" height="50" relative="1" as="geometry">
            <mxPoint x="252" y="2774.74" as="sourcePoint" />
            <mxPoint x="559" y="2774.74" as="targetPoint" />
          </mxGeometry>
        </mxCell>
        <mxCell id="1xaKZHLUmzfNcFH49czM-48" value="SAP" style="shape=umlLifeline;perimeter=lifelinePerimeter;container=1;collapsible=0;recursiveResize=0;rounded=0;shadow=0;strokeWidth=1;" vertex="1" parent="1">
          <mxGeometry x="1011" y="2500" width="115" height="600" as="geometry" />
        </mxCell>
        <mxCell id="1xaKZHLUmzfNcFH49czM-49" value="" style="points=[];perimeter=orthogonalPerimeter;rounded=0;shadow=0;strokeWidth=1;" vertex="1" parent="1xaKZHLUmzfNcFH49czM-48">
          <mxGeometry x="44" y="70" width="10" height="470" as="geometry" />
        </mxCell>
        <mxCell id="1xaKZHLUmzfNcFH49czM-53" value="校验不通过，错误码" style="verticalAlign=bottom;endArrow=open;dashed=1;endSize=8;shadow=0;strokeWidth=1;exitX=-0.05;exitY=0.375;exitDx=0;exitDy=0;exitPerimeter=0;" edge="1" parent="1" source="1xaKZHLUmzfNcFH49czM-39" target="1xaKZHLUmzfNcFH49czM-29">
          <mxGeometry relative="1" as="geometry">
            <mxPoint x="270" y="2910" as="targetPoint" />
            <mxPoint x="548.5" y="2910" as="sourcePoint" />
          </mxGeometry>
        </mxCell>
        <mxCell id="1xaKZHLUmzfNcFH49czM-63" value="&lt;pre style=&quot;background-color: #ffffff ; color: #080808 ; font-family: &amp;#34;jetbrains mono&amp;#34; , monospace ; font-size: 9.8pt&quot;&gt;&lt;span style=&quot;color: #067d17&quot;&gt;申请号牌接口(新流程) &lt;/span&gt;bindNum&lt;/pre&gt;" style="text;html=1;align=center;verticalAlign=middle;resizable=0;points=[];autosize=1;strokeColor=none;fillColor=none;" vertex="1" parent="1">
          <mxGeometry x="295" y="2739" width="210" height="50" as="geometry" />
        </mxCell>
        <mxCell id="1xaKZHLUmzfNcFH49czM-64" value="是否是即刻拍&lt;br&gt;黑名单&lt;br&gt;白名单&lt;br&gt;用户证件校验" style="endArrow=classic;html=1;rounded=0;exitX=0.483;exitY=0.653;exitDx=0;exitDy=0;exitPerimeter=0;entryX=0.5;entryY=0.398;entryDx=0;entryDy=0;entryPerimeter=0;" edge="1" parent="1" target="1xaKZHLUmzfNcFH49czM-38">
          <mxGeometry width="50" height="50" relative="1" as="geometry">
            <mxPoint x="569.9950000000001" y="2803.2900000000004" as="sourcePoint" />
            <mxPoint x="570.915" y="2848.89" as="targetPoint" />
            <Array as="points">
              <mxPoint x="650.95" y="2803" />
              <mxPoint x="651" y="2878" />
            </Array>
          </mxGeometry>
        </mxCell>
        <mxCell id="1xaKZHLUmzfNcFH49czM-65" value="" style="endArrow=classic;html=1;rounded=0;fontSize=14;" edge="1" parent="1" target="1xaKZHLUmzfNcFH49czM-44">
          <mxGeometry width="50" height="50" relative="1" as="geometry">
            <mxPoint x="570" y="2945" as="sourcePoint" />
            <mxPoint x="810" y="2945" as="targetPoint" />
          </mxGeometry>
        </mxCell>
        <mxCell id="1xaKZHLUmzfNcFH49czM-66" value="向SAP获取号牌&lt;br&gt;&lt;span style=&quot;background-color: rgb(255 , 255 , 255) ; color: rgb(8 , 8 , 8) ; font-family: &amp;#34;jetbrains mono&amp;#34; , monospace ; font-size: 9.8pt&quot;&gt;http://10.3.0.11/CGWebMgr/sap_interface/onlinePaymentOrDepositReceipt&lt;/span&gt;" style="text;html=1;align=center;verticalAlign=middle;resizable=0;points=[];autosize=1;strokeColor=none;fillColor=none;" vertex="1" parent="1">
          <mxGeometry x="420" y="2905" width="560" height="30" as="geometry" />
        </mxCell>
        <mxCell id="1xaKZHLUmzfNcFH49czM-67" value="" style="endArrow=classic;html=1;rounded=0;" edge="1" parent="1" source="1xaKZHLUmzfNcFH49czM-44" target="1xaKZHLUmzfNcFH49czM-48">
          <mxGeometry width="50" height="50" relative="1" as="geometry">
            <mxPoint x="670" y="3020" as="sourcePoint" />
            <mxPoint x="720" y="2970" as="targetPoint" />
          </mxGeometry>
        </mxCell>
        <mxCell id="1xaKZHLUmzfNcFH49czM-68" value="" style="verticalAlign=bottom;endArrow=open;dashed=1;endSize=8;shadow=0;strokeWidth=1;" edge="1" parent="1">
          <mxGeometry relative="1" as="geometry">
            <mxPoint x="869.5" y="2993" as="targetPoint" />
            <mxPoint x="1068" y="2993" as="sourcePoint" />
            <Array as="points">
              <mxPoint x="1020" y="2993" />
            </Array>
          </mxGeometry>
        </mxCell>
        <mxCell id="1xaKZHLUmzfNcFH49czM-70" value="失败EV_OK = E，成功返回bidding_number" style="verticalAlign=bottom;endArrow=open;dashed=1;endSize=8;shadow=0;strokeWidth=1;entryX=0.483;entryY=0.538;entryDx=0;entryDy=0;entryPerimeter=0;" edge="1" parent="1">
          <mxGeometry relative="1" as="geometry">
            <mxPoint x="568.0450000000001" y="3019.1" as="targetPoint" />
            <mxPoint x="869.5" y="3019.1" as="sourcePoint" />
          </mxGeometry>
        </mxCell>
        <mxCell id="1xaKZHLUmzfNcFH49czM-71" value="返回号牌，或错误码" style="verticalAlign=bottom;endArrow=open;dashed=1;endSize=8;shadow=0;strokeWidth=1;entryX=0.483;entryY=0.538;entryDx=0;entryDy=0;entryPerimeter=0;" edge="1" parent="1">
          <mxGeometry relative="1" as="geometry">
            <mxPoint x="249.2750000000001" y="3047" as="targetPoint" />
            <mxPoint x="557.5" y="3047" as="sourcePoint" />
          </mxGeometry>
        </mxCell>
        <mxCell id="1xaKZHLUmzfNcFH49czM-73" value="&lt;b&gt;&lt;font style=&quot;font-size: 18px&quot;&gt;用户办理号牌流程&lt;/font&gt;&lt;/b&gt;" style="rounded=0;whiteSpace=wrap;html=1;fillColor=#FFD966;" vertex="1" parent="1">
          <mxGeometry x="70" y="2448" width="1050" height="40" as="geometry" />
        </mxCell>
        <mxCell id="1xaKZHLUmzfNcFH49czM-74" value="前端" style="shape=umlLifeline;perimeter=lifelinePerimeter;container=1;collapsible=0;recursiveResize=0;rounded=0;shadow=0;strokeWidth=1;" vertex="1" parent="1">
          <mxGeometry x="189" y="3660" width="115" height="950" as="geometry" />
        </mxCell>
        <mxCell id="1xaKZHLUmzfNcFH49czM-75" value="" style="points=[];perimeter=orthogonalPerimeter;rounded=0;shadow=0;strokeWidth=1;" vertex="1" parent="1xaKZHLUmzfNcFH49czM-74">
          <mxGeometry x="45" y="70" width="10" height="880" as="geometry" />
        </mxCell>
        <mxCell id="1xaKZHLUmzfNcFH49czM-77" value="返回错误码" style="verticalAlign=bottom;endArrow=open;dashed=1;endSize=8;shadow=0;strokeWidth=1;" edge="1" parent="1xaKZHLUmzfNcFH49czM-74">
          <mxGeometry relative="1" as="geometry">
            <mxPoint x="-95" y="431" as="targetPoint" />
            <mxPoint x="55" y="431" as="sourcePoint" />
          </mxGeometry>
        </mxCell>
        <mxCell id="1xaKZHLUmzfNcFH49czM-106" value="返回法律条款页" style="verticalAlign=bottom;endArrow=open;dashed=1;endSize=8;shadow=0;strokeWidth=1;" edge="1" parent="1xaKZHLUmzfNcFH49czM-74" source="1xaKZHLUmzfNcFH49czM-102">
          <mxGeometry relative="1" as="geometry">
            <mxPoint x="-95" y="509.5" as="targetPoint" />
            <mxPoint x="55" y="509.5" as="sourcePoint" />
          </mxGeometry>
        </mxCell>
        <mxCell id="1xaKZHLUmzfNcFH49czM-78" value="Actor" style="shape=umlActor;verticalLabelPosition=bottom;verticalAlign=top;html=1;outlineConnect=0;" vertex="1" parent="1">
          <mxGeometry x="74" y="3710" width="30" height="60" as="geometry" />
        </mxCell>
        <mxCell id="1xaKZHLUmzfNcFH49czM-79" value="1. 点击“办理号牌”" style="verticalAlign=bottom;startArrow=oval;endArrow=block;startSize=8;shadow=0;strokeWidth=1;exitX=0.5;exitY=0.5;exitDx=0;exitDy=0;exitPerimeter=0;" edge="1" parent="1" source="1xaKZHLUmzfNcFH49czM-78" target="1xaKZHLUmzfNcFH49czM-75">
          <mxGeometry relative="1" as="geometry">
            <mxPoint x="174" y="3740" as="sourcePoint" />
          </mxGeometry>
        </mxCell>
        <mxCell id="1xaKZHLUmzfNcFH49czM-80" value="" style="points=[];perimeter=orthogonalPerimeter;rounded=0;shadow=0;strokeWidth=1;" vertex="1" parent="1">
          <mxGeometry x="84" y="3760" width="10" height="849" as="geometry" />
        </mxCell>
        <mxCell id="1xaKZHLUmzfNcFH49czM-81" value="auction_syn" style="shape=umlLifeline;perimeter=lifelinePerimeter;container=1;collapsible=0;recursiveResize=0;rounded=0;shadow=0;strokeWidth=1;" vertex="1" parent="1">
          <mxGeometry x="506.5" y="3660" width="115" height="950" as="geometry" />
        </mxCell>
        <mxCell id="1xaKZHLUmzfNcFH49czM-82" value="" style="points=[];perimeter=orthogonalPerimeter;rounded=0;shadow=0;strokeWidth=1;" vertex="1" parent="1xaKZHLUmzfNcFH49czM-81">
          <mxGeometry x="45" y="70" width="10" height="880" as="geometry" />
        </mxCell>
        <mxCell id="1xaKZHLUmzfNcFH49czM-83" value="拍卖会&lt;br&gt;是否是即刻拍&lt;br&gt;黑名单&lt;br&gt;白名单&lt;br&gt;用户证件校验" style="endArrow=classic;html=1;rounded=0;exitX=0.483;exitY=0.653;exitDx=0;exitDy=0;exitPerimeter=0;entryX=0.95;entryY=0.165;entryDx=0;entryDy=0;entryPerimeter=0;" edge="1" parent="1xaKZHLUmzfNcFH49czM-81" target="1xaKZHLUmzfNcFH49czM-82">
          <mxGeometry width="50" height="50" relative="1" as="geometry">
            <mxPoint x="54.99500000000012" y="130.29000000000042" as="sourcePoint" />
            <mxPoint x="55.914999999999964" y="175.88999999999987" as="targetPoint" />
            <Array as="points">
              <mxPoint x="135.95000000000005" y="130" />
              <mxPoint x="135.5" y="215" />
            </Array>
          </mxGeometry>
        </mxCell>
        <mxCell id="1xaKZHLUmzfNcFH49czM-84" value="" style="endArrow=classic;html=1;rounded=0;fontSize=14;entryX=0.517;entryY=0.124;entryDx=0;entryDy=0;entryPerimeter=0;" edge="1" parent="1" source="1xaKZHLUmzfNcFH49czM-75" target="1xaKZHLUmzfNcFH49czM-81">
          <mxGeometry width="50" height="50" relative="1" as="geometry">
            <mxPoint x="264" y="3770" as="sourcePoint" />
            <mxPoint x="365.5" y="3770" as="targetPoint" />
          </mxGeometry>
        </mxCell>
        <mxCell id="1xaKZHLUmzfNcFH49czM-85" value="&lt;span style=&quot;color: rgb(6 , 125 , 23) ; font-family: &amp;#34;jetbrains mono&amp;#34; , monospace ; font-size: 9.8pt&quot;&gt;申请号牌资格校验接口&amp;nbsp;&lt;/span&gt;&lt;span style=&quot;color: rgb(6 , 125 , 23) ; font-family: &amp;#34;jetbrains mono&amp;#34; , monospace ; font-size: 9.8pt&quot;&gt;qualification_check&lt;/span&gt;" style="edgeLabel;html=1;align=center;verticalAlign=middle;resizable=0;points=[];fontSize=14;" vertex="1" connectable="0" parent="1xaKZHLUmzfNcFH49czM-84">
          <mxGeometry x="-0.2963" y="1" relative="1" as="geometry">
            <mxPoint x="37" y="-13" as="offset" />
          </mxGeometry>
        </mxCell>
        <mxCell id="1xaKZHLUmzfNcFH49czM-87" value="CGWebMgr" style="shape=umlLifeline;perimeter=lifelinePerimeter;container=1;collapsible=0;recursiveResize=0;rounded=0;shadow=0;strokeWidth=1;" vertex="1" parent="1">
          <mxGeometry x="806.5" y="3660" width="115" height="940" as="geometry" />
        </mxCell>
        <mxCell id="1xaKZHLUmzfNcFH49czM-88" value="" style="points=[];perimeter=orthogonalPerimeter;rounded=0;shadow=0;strokeWidth=1;" vertex="1" parent="1xaKZHLUmzfNcFH49czM-87">
          <mxGeometry x="44" y="70" width="10" height="870" as="geometry" />
        </mxCell>
        <mxCell id="1xaKZHLUmzfNcFH49czM-89" value="" style="endArrow=classic;html=1;rounded=0;fontSize=14;entryX=0.15;entryY=0.458;entryDx=0;entryDy=0;entryPerimeter=0;" edge="1" parent="1">
          <mxGeometry width="50" height="50" relative="1" as="geometry">
            <mxPoint x="246" y="4007.74" as="sourcePoint" />
            <mxPoint x="553" y="4007.74" as="targetPoint" />
          </mxGeometry>
        </mxCell>
        <mxCell id="1xaKZHLUmzfNcFH49czM-90" value="SAP" style="shape=umlLifeline;perimeter=lifelinePerimeter;container=1;collapsible=0;recursiveResize=0;rounded=0;shadow=0;strokeWidth=1;" vertex="1" parent="1">
          <mxGeometry x="1005" y="3660" width="115" height="600" as="geometry" />
        </mxCell>
        <mxCell id="1xaKZHLUmzfNcFH49czM-91" value="" style="points=[];perimeter=orthogonalPerimeter;rounded=0;shadow=0;strokeWidth=1;" vertex="1" parent="1xaKZHLUmzfNcFH49czM-90">
          <mxGeometry x="44" y="70" width="10" height="470" as="geometry" />
        </mxCell>
        <mxCell id="1xaKZHLUmzfNcFH49czM-92" value="校验不通过，错误码" style="verticalAlign=bottom;endArrow=open;dashed=1;endSize=8;shadow=0;strokeWidth=1;exitX=-0.05;exitY=0.375;exitDx=0;exitDy=0;exitPerimeter=0;" edge="1" parent="1">
          <mxGeometry relative="1" as="geometry">
            <mxPoint x="246" y="3888" as="targetPoint" />
            <mxPoint x="551" y="3888" as="sourcePoint" />
          </mxGeometry>
        </mxCell>
        <mxCell id="1xaKZHLUmzfNcFH49czM-93" value="&lt;pre style=&quot;background-color: rgb(255 , 255 , 255)&quot;&gt;&lt;pre&gt;&lt;span style=&quot;color: rgb(6 , 125 , 23) ; font-family: &amp;#34;jetbrains mono&amp;#34; , monospace ; font-size: 9.8pt&quot;&gt;查看法律条款&lt;/span&gt;/basics/law/find&lt;/pre&gt;&lt;/pre&gt;" style="text;html=1;align=center;verticalAlign=middle;resizable=0;points=[];autosize=1;strokeColor=none;fillColor=none;" vertex="1" parent="1">
          <mxGeometry x="289" y="3976" width="210" height="40" as="geometry" />
        </mxCell>
        <mxCell id="1xaKZHLUmzfNcFH49czM-95" value="" style="endArrow=classic;html=1;rounded=0;fontSize=14;" edge="1" parent="1">
          <mxGeometry width="50" height="50" relative="1" as="geometry">
            <mxPoint x="564" y="3947" as="sourcePoint" />
            <mxPoint x="863.5" y="3947" as="targetPoint" />
          </mxGeometry>
        </mxCell>
        <mxCell id="1xaKZHLUmzfNcFH49czM-96" value="向SAP获取号牌&lt;br&gt;&lt;span style=&quot;background-color: rgb(255 , 255 , 255) ; color: rgb(8 , 8 , 8) ; font-family: &amp;#34;jetbrains mono&amp;#34; , monospace ; font-size: 9.8pt&quot;&gt;http://10.3.0.11/CGWebMgr/sap_interface/onlinePaymentOrDepositReceipt&lt;/span&gt;" style="text;html=1;align=center;verticalAlign=middle;resizable=0;points=[];autosize=1;strokeColor=none;fillColor=none;" vertex="1" parent="1">
          <mxGeometry x="414" y="3908" width="560" height="30" as="geometry" />
        </mxCell>
        <mxCell id="1xaKZHLUmzfNcFH49czM-97" value="" style="endArrow=classic;html=1;rounded=0;" edge="1" parent="1">
          <mxGeometry width="50" height="50" relative="1" as="geometry">
            <mxPoint x="863.5" y="3979" as="sourcePoint" />
            <mxPoint x="1062" y="3979" as="targetPoint" />
          </mxGeometry>
        </mxCell>
        <mxCell id="1xaKZHLUmzfNcFH49czM-98" value="" style="verticalAlign=bottom;endArrow=open;dashed=1;endSize=8;shadow=0;strokeWidth=1;" edge="1" parent="1">
          <mxGeometry relative="1" as="geometry">
            <mxPoint x="863.5" y="4005" as="targetPoint" />
            <mxPoint x="1062" y="4005" as="sourcePoint" />
            <Array as="points">
              <mxPoint x="1014" y="4005" />
            </Array>
          </mxGeometry>
        </mxCell>
        <mxCell id="1xaKZHLUmzfNcFH49czM-99" value="失败EV_OK = E，成功返回bidding_number" style="verticalAlign=bottom;endArrow=open;dashed=1;endSize=8;shadow=0;strokeWidth=1;entryX=0.483;entryY=0.538;entryDx=0;entryDy=0;entryPerimeter=0;" edge="1" parent="1">
          <mxGeometry relative="1" as="geometry">
            <mxPoint x="562.0450000000001" y="4040.1000000000004" as="targetPoint" />
            <mxPoint x="863.5" y="4040.1000000000004" as="sourcePoint" />
          </mxGeometry>
        </mxCell>
        <mxCell id="1xaKZHLUmzfNcFH49czM-100" value="返回空&quot;&quot; 表示通过，或错误码" style="verticalAlign=bottom;endArrow=open;dashed=1;endSize=8;shadow=0;strokeWidth=1;entryX=0.483;entryY=0.538;entryDx=0;entryDy=0;entryPerimeter=0;" edge="1" parent="1">
          <mxGeometry relative="1" as="geometry">
            <mxPoint x="243.2750000000001" y="4069" as="targetPoint" />
            <mxPoint x="551.5" y="4069" as="sourcePoint" />
          </mxGeometry>
        </mxCell>
        <mxCell id="1xaKZHLUmzfNcFH49czM-76" value="校验不通过，原因" style="verticalAlign=bottom;endArrow=open;dashed=1;endSize=8;shadow=0;strokeWidth=1;" edge="1" parent="1">
          <mxGeometry relative="1" as="geometry">
            <mxPoint x="94" y="3905" as="targetPoint" />
            <mxPoint x="234" y="3905" as="sourcePoint" />
          </mxGeometry>
        </mxCell>
        <mxCell id="1xaKZHLUmzfNcFH49czM-102" value="Basic" style="shape=umlLifeline;perimeter=lifelinePerimeter;container=1;collapsible=0;recursiveResize=0;rounded=0;shadow=0;strokeWidth=1;" vertex="1" parent="1">
          <mxGeometry x="1160" y="3660" width="115" height="600" as="geometry" />
        </mxCell>
        <mxCell id="1xaKZHLUmzfNcFH49czM-103" value="" style="points=[];perimeter=orthogonalPerimeter;rounded=0;shadow=0;strokeWidth=1;" vertex="1" parent="1xaKZHLUmzfNcFH49czM-102">
          <mxGeometry x="44" y="70" width="10" height="470" as="geometry" />
        </mxCell>
        <mxCell id="1xaKZHLUmzfNcFH49czM-104" value="" style="endArrow=classic;html=1;rounded=0;fontSize=14;" edge="1" parent="1" target="1xaKZHLUmzfNcFH49czM-102">
          <mxGeometry width="50" height="50" relative="1" as="geometry">
            <mxPoint x="246.5" y="4129.5" as="sourcePoint" />
            <mxPoint x="553.5" y="4129.5" as="targetPoint" />
          </mxGeometry>
        </mxCell>
        <mxCell id="1xaKZHLUmzfNcFH49czM-105" value="&lt;font style=&quot;font-size: 14px&quot;&gt;&lt;font color=&quot;#067d17&quot; face=&quot;jetbrains mono, monospace&quot;&gt;&lt;span style=&quot;background-color: rgb(255 , 255 , 255)&quot;&gt;查看法律条款&amp;nbsp;&lt;/span&gt;&lt;/font&gt;/basics/law/find&lt;/font&gt;" style="text;html=1;align=center;verticalAlign=middle;resizable=0;points=[];autosize=1;strokeColor=none;fillColor=none;fontSize=18;" vertex="1" parent="1">
          <mxGeometry x="588" y="4094" width="200" height="30" as="geometry" />
        </mxCell>
      </root>
    </mxGraphModel>
  </diagram>
</mxfile>
